<?xml version="1.0" encoding="utf-8"?>
<!-- Generator: Adobe Illustrator 24.3.0, SVG Export Plug-In . SVG Version: 6.00 Build 0)  -->
<svg version="1.1" id="Layer_1" xmlns="http://www.w3.org/2000/svg" xmlns:xlink="http://www.w3.org/1999/xlink" x="0px" y="0px"
	 viewBox="0 0 187.8 220.8" style="enable-background:new 0 0 187.8 220.8;" xml:space="preserve">
<style type="text/css">
	.st0{fill:#55A6FF;stroke:#54596E;stroke-width:3;}
	.st1{fill:#FFFFFF;stroke:#54596E;stroke-width:3;}
	.st2{fill:none;stroke:#54596E;stroke-width:3;}
	.st3{fill:#54596E;stroke:#54596E;stroke-width:3;}
	.st4{fill:none;stroke:#54596E;stroke-width:3;stroke-linecap:round;}
	.st5{fill:#FFF35F;stroke:#54596E;stroke-width:3;}
	.st6{fill:#54596E;stroke:#54596E;stroke-width:3;stroke-linejoin:round;}
	.st7{fill:#E5E7F1;}
</style>
<g id="Layer_2_1_">
	<g id="Layer_1-2">
		<path class="st0" d="M164,170.5c0,0,4.6,42.7-70.1,42.7s-71.3-42.7-71.3-42.7C67.1,202.2,114.2,202.6,164,170.5z"/>
		<path class="st1" d="M29.3,100.2c-5.4,39.2-7.6,57.9-6.7,70.2s17.3,32.1,70.3,33.2s69.9-24.2,71-33.2s1.9-34.6-8.8-70.2"/>
		<path class="st1" d="M40.9,110.7c0,0-4,22.7-21.6,29.9s-31.7-31.1,6.4-55.1C40.9,76.7,55,87.2,55,87.2s37-12.1,75.5,0
			c15.8-11.5,25.7-4.2,25.7-4.2s15.4,7.3,27.7,31.7s-29.1,44.9-38.5-4"/>
		<line class="st2" x1="93.4" y1="152.1" x2="93.4" y2="146.8"/>
		<circle class="st3" cx="64.8" cy="125.3" r="3.4"/>
		<circle class="st3" cx="122.2" cy="125.3" r="3.4"/>
		<path class="st4" d="M79.1,156.7c9.5-6.1,19.1-6.1,28.6,0"/>
		<circle class="st5" cx="93.9" cy="211.4" r="7.9"/>
		<path class="st6" d="M86.7,140.6l2.4,4.4c0.1,0.2,0.3,0.4,0.5,0.5c2.4,1,5.1,1,7.4,0c0.2-0.1,0.4-0.3,0.5-0.5l2.4-4.4
			c0.3-0.5,0.1-1.1-0.4-1.3c-3.8-2.5-8.7-2.5-12.5,0C86.6,139.5,86.4,140.1,86.7,140.6z"/>
		<path class="st7" d="M143.7,47.5l-3.9-2.1l1.1-2.1c0.3-0.7,0.8-1.4,1.4-1.9c0.7-0.5,1.6-0.8,2.4-1l3.9-1.2
			c0.8-0.3,1.5-0.9,1.9-1.7c0.5-0.8,0.6-1.7,0.3-2.6c-0.3-0.9-0.9-1.6-1.7-2c-0.8-0.5-1.7-0.6-2.6-0.4c-0.9,0.2-1.7,0.8-2.2,1.6
			l-4.2-2.2c1.1-1.8,2.9-3.1,5-3.5c2.1-0.4,4.2-0.1,6.1,1c1.9,0.9,3.3,2.5,4.1,4.4c0.7,1.9,0.5,4-0.6,5.7c-0.6,1.3-1.7,2.3-3,2.8
			c-0.5,0.2-1.1,0.4-1.6,0.6c-0.4,0.1-0.8,0.2-1.4,0.4s-1.1,0.3-1.5,0.4s-0.7,0.2-1,0.3c-0.8,0.4-1.4,1-1.8,1.8L143.7,47.5z
			 M137.7,54.2c-0.7-0.4-1.2-1-1.5-1.8c-0.3-0.7-0.2-1.5,0.2-2.2c0.4-0.7,1-1.2,1.8-1.4c0.8-0.2,1.6-0.1,2.3,0.2
			c0.7,0.4,1.2,1,1.5,1.8c0.3,0.7,0.2,1.5-0.2,2.2c-0.4,0.7-1,1.2-1.8,1.4C139.2,54.7,138.3,54.6,137.7,54.2L137.7,54.2z"/>
		<path class="st7" d="M100.2,39.4l-8.7-1.5l0.8-4.7c0.2-1.6,0.7-3.1,1.5-4.5c1.1-1.3,2.4-2.5,3.9-3.4l6.6-4.7
			c1.4-1.1,2.3-2.7,2.6-4.5c0.4-1.8,0-3.6-1-5.1c-1-1.5-2.7-2.5-4.5-2.7c-1.8-0.4-3.7,0-5.2,1c-1.6,1-2.7,2.6-3.2,4.4l-9.4-1.6
			c1-4.1,3.6-7.7,7.2-9.9c3.7-2.1,8-2.8,12.2-1.9c4.6,0.8,8.1,2.7,10.6,5.7c2.5,3,3.3,6.7,2.6,11.2c-0.4,2.8-1.8,5.4-3.9,7.3
			c-1.2,1.1-2.1,1.8-2.7,2.2s-1.4,1-2.4,1.6s-1.8,1.2-2.5,1.7s-1.2,0.9-1.7,1.3c-1.2,1.2-2,2.8-2.2,4.6L100.2,39.4z M93.1,55.9
			c-1.6-0.2-3-1.1-3.9-2.4c-1-1.2-1.4-2.8-1.1-4.3c0.2-1.5,1.1-2.9,2.4-3.8c1.3-0.9,2.9-1.3,4.5-1c1.6,0.2,3,1.1,3.9,2.4
			c1,1.2,1.4,2.8,1.2,4.3c-0.2,1.5-1.1,2.9-2.4,3.8C96.3,55.8,94.6,56.2,93.1,55.9z"/>
		<path class="st7" d="M56.5,54.1l-5.3,2.6l-1.4-2.8c-0.5-0.9-0.8-1.9-0.9-3c0.1-1.1,0.3-2.3,0.8-3.3l1.8-5.1
			c0.3-1.2,0.2-2.4-0.3-3.5c-0.5-1.1-1.4-1.9-2.5-2.3c-1.1-0.4-2.4-0.3-3.5,0.3c-1.1,0.5-2,1.4-2.4,2.5c-0.4,1.2-0.4,2.4,0,3.6
			L37,45.8c-1-2.6-1-5.5,0.1-8.1c1.2-2.6,3.3-4.6,5.9-5.7c2.4-1.3,5.2-1.7,7.9-1c2.6,0.7,4.6,2.6,5.7,5c0.9,1.7,1.1,3.6,0.7,5.4
			c-0.2,0.8-0.3,1.5-0.6,2.2c-0.2,0.5-0.4,1.1-0.7,1.8s-0.5,1.4-0.7,1.9s-0.3,1-0.4,1.3c-0.2,1.1,0,2.3,0.6,3.3L56.5,54.1z M59,65.8
			c-0.9,0.5-2,0.5-3,0.2c-1-0.3-1.8-1-2.2-1.9c-0.5-0.9-0.5-2-0.1-3c0.3-1,1.1-1.8,2-2.2c0.9-0.5,2-0.5,3-0.2c1,0.3,1.8,1,2.3,1.9
			c0.5,0.9,0.5,2,0.1,3C60.7,64.5,59.9,65.3,59,65.8z"/>
	</g>
</g>
</svg>
